<svg xmlns="http://www.w3.org/2000/svg" viewBox="0 0 120 160" width="120" height="160" role="img" aria-label="Coffee cup icon">
  <!-- Lid -->
  <rect x="16" y="8" width="88" height="16" rx="7" fill="#fff" stroke="#000" stroke-width="2" stroke-linejoin="round" />

  <!-- Lid band (rounded rectangle under lid) -->
  <rect x="14" y="30" width="92" height="18" rx="8" fill="#fff" stroke="#000" stroke-width="2" stroke-linejoin="round" />

  <!-- Cup body (tapered) -->
  <path d="M22 50 L98 50 L88 136 A10 10 0 0 1 78 146 H42 A10 10 0 0 1 32 136 Z" fill="#fff" stroke="#000" stroke-width="2" stroke-linejoin="round" />

  <!-- Sleeve (solid black band) -->
  <rect x="30" y="72" width="60" height="44" rx="3" ry="3" fill="#000" />

  <!-- Bottom white panel -->
  <rect x="36" y="128" width="48" height="14" rx="3" fill="#fff" stroke="#000" stroke-width="2" stroke-linejoin="round" />

  <!-- Coffee bean (white) centered on sleeve -->
  <g transform="translate(60,94) rotate(-8)">
    <!-- left half of bean -->
    <path d="M -20 2
     C -18 -18 -4 -26 4 -18
     C 0 -14 -2 -6 -6 6
     C -10 18 -16 22 -20 10 Z"
      fill="#fff" />

    <!-- right half of bean -->
    <path d="M 20 2
     C 18 -18 4 -26 -4 -18
     C 0 -14 2 -6 6 6
     C 10 18 16 22 20 10 Z"
      fill="#fff" />

    <!-- seam curve between halves -->
    <path d="M -4 -12 C 6 -8 10 2 4 14"
      fill="none" stroke="#000" stroke-width="3" stroke-linecap="round" stroke-linejoin="round" />
  </g>

</svg>
