<svg xmlns="http://www.w3.org/2000/svg" viewBox="0 0 64 64" width="64" height="64" aria-hidden="true">
  <!-- Solid silhouette coffee cup icon: saucer, cup body with handle, and three steam lines -->
  <g fill="#ffffffff" stroke="none">
    <!-- Saucer -->
    <ellipse cx="32" cy="52" rx="20" ry="2.8" />
    <!-- Cup body -->
    <path d="M12 36c0 7 7 12 20 12s20-5 20-12v-7H12v7z" />
    <!-- Cup rim (slight inset for silhouette) -->
    <path d="M14 33c0 3.2 6.5 6 18 6s18-2.8 18-6" fill="#faf9f9ff" />
    <!-- Handle (filled shape) -->
    <path d="M48 31c5 0 9 4 9 8s-4 8-9 8c0 0 3-2 3-6s-3-10-3-10z" transform="translate(0 -1)" />
  </g>
  <!-- Steam: drawn as smooth curved strokes (kept black to match silhouette) -->
  <g fill="none" stroke="#fefefeff" strokeWidth="2.4" strokeLinecap="round" strokeLinejoin="round">
    <path d="M19 12c2-5 6-5 6 0s-4 5-4 8" />
    <path d="M27 12c2-5 6-5 6 0s-4 5-4 8" />
    <path d="M35 12c2-5 6-5 6 0s-4 5-4 8" />
  </g>
</svg>
